<svg xmlns="http://www.w3.org/2000/svg" xml:space="preserve" width="237.067mm" height="84.6666mm" version="1.1" viewBox="0 0 23707 8467">
 <g>
  <path class="fil0" d="M4415 2982c0,1136 22,1019 824,745 959,-327 984,-264 41,-927 -992,-697 -865,-634 -865,182z"/>
  <path class="fil0" d="M4277 2985c57,1116 30,1002 -771,774 -958,-274 -980,-211 -87,-909 939,-734 817,-666 858,135z"/>
  <path class="fil0" d="M5073 4923c-670,-917 -583,-835 226,-1087 967,-301 950,-367 580,724 -390,1149 -324,1022 -806,363z"/>
  <path class="fil0" d="M3673 4951c670,-917 583,-836 -226,-1088 -967,-301 -950,-366 -580,725 390,1148 324,1022 806,363z"/>
  <path class="fil0" d="M3781 4995c653,-907 603,-801 1086,-122 576,813 633,777 -501,764 -1192,-14 -1054,9 -585,-642z"/>
  <path class="fil0" d="M3814 6467c653,906 603,800 1085,121 577,-812 634,-776 -500,-763 -1192,14 -1054,-9 -585,642z"/>
  <path class="fil0" d="M3725 6626c-554,-770 -560,-768 -912,-187 -253,420 -515,465 411,683 1121,263 915,81 501,-496z"/>
  <path class="fil0" d="M5040 6591c539,-781 580,-754 916,-164 242,426 497,449 -428,672 -1072,258 -892,78 -488,-508z"/>
  <path class="fil0" d="M3399 1752c915,250 845,195 849,-378 5,-573 79,-590 -724,-244 -1057,456 -886,415 -125,622z"/>
  <path class="fil0" d="M5224 1738c-908,275 -839,218 -860,-355 -21,-572 -95,-587 717,-264 1070,426 897,390 143,619z"/>
  <path class="fil0" d="M6205 2568c0,-1136 -22,-1019 -824,-745 -959,327 -984,264 -41,927 992,697 865,634 865,-182z"/>
  <path class="fil0" d="M2478 2639c-44,-1135 -18,-1019 794,-778 971,290 994,226 77,925 -963,736 -838,668 -871,-147z"/>
  <path class="fil0" d="M1771 4392c604,-813 591,-842 -83,-1001 -675,-158 -565,-258 -514,674 66,1198 136,948 597,327z"/>
  <path class="fil0" d="M2334 2516c36,948 -1,867 -561,743 -559,-125 -592,-57 -74,-761 683,-927 605,-769 635,18z"/>
  <path class="fil0" d="M1950 4324c-675,914 -588,833 220,1088 966,306 949,372 583,-721 -384,-1150 -319,-1024 -803,-367z"/>
  <path class="fil0" d="M6782 4266c674,914 587,833 -220,1088 -966,306 -949,371 -584,-722 385,-1150 320,-1023 804,-366z"/>
  <path class="fil0" d="M6944 4297c-599,-764 -589,-793 36,-977 625,-183 518,-275 509,632 -11,1169 -87,929 -545,345z"/>
  <path class="fil0" d="M6327 2502c4,949 38,866 592,718 553,-148 589,-82 41,-763 -721,-898 -636,-743 -633,45z"/>
  <path class="fil0" d="M6967 5960c-455,771 -486,946 -853,417 -454,-657 -532,-550 335,-820 946,-295 858,-175 518,403z"/>
  <path class="fil0" d="M1815 6005c455,770 486,945 852,416 455,-657 533,-550 -334,-820 -946,-295 -859,-175 -518,404z"/>
  <path class="fil0" d="M6988 1849c440,162 381,233 457,595 111,526 63,487 -510,-196 -550,-655 -529,-614 53,-399z"/>
  <path class="fil0" d="M5157 7654c457,161 489,64 744,-222 301,-338 272,-378 -547,-145 -745,211 -687,195 -197,367z"/>
  <path class="fil0" d="M3562 7644c-417,158 -430,54 -689,-185 -367,-339 -301,-365 499,-148 694,189 643,162 190,333z"/>
  <path class="fil0" d="M1318 6019c0,410 76,383 351,556 399,250 381,198 -6,-479 -372,-651 -346,-621 -345,-77z"/>
  <path class="fil0" d="M749 4064c-148,338 -97,359 88,585 187,228 207,174 169,-397 -46,-674 -60,-638 -257,-188z"/>
  <path class="fil0" d="M1583 1980c-368,154 -315,212 -367,523 -75,452 -35,417 428,-185 444,-578 428,-543 -61,-338z"/>
  <path class="fil0" d="M5085 678c476,-65 457,27 700,318 354,423 291,411 -556,69 -813,-327 -775,-301 -144,-387z"/>
  <path class="fil0" d="M3521 707c-470,-63 -451,28 -690,316 -349,419 -287,406 549,67 803,-326 765,-300 141,-383z"/>
  <path class="fil0" d="M4738 7649c-412,-198 -442,-103 -776,46 -457,204 -117,199 414,204 806,9 738,-68 362,-250z"/>
  <path class="fil0" d="M6237 7208c178,-240 295,-290 484,-346 452,-133 188,36 -159,308 -476,374 -547,339 -325,38z"/>
  <path class="fil0" d="M2441 7216c-162,-214 -255,-272 -423,-329 -400,-137 -201,-2 101,256 414,354 511,323 322,73z"/>
  <path class="fil0" d="M1166 5585c15,-381 -49,-402 -195,-567 -390,-443 -249,-50 -78,476 236,722 258,486 273,91z"/>
  <path class="fil0" d="M2504 1197c-192,258 -276,343 -480,403 -488,143 -348,26 138,-345 519,-397 583,-381 342,-58z"/>
  <path class="fil0" d="M6178 1212c180,243 299,294 490,351 458,135 223,-29 -129,-305 -483,-380 -587,-351 -361,-46z"/>
  <path class="fil0" d="M1011 3005c14,262 29,337 -82,471 -265,319 -219,121 -124,-256 135,-533 187,-576 206,-215z"/>
  <path class="fil0" d="M4549 649c-331,55 -325,22 -578,-17 -344,-54 -87,-95 309,-98 625,-5 616,58 269,115z"/>
  <path class="fil0" d="M7917 3808c208,420 117,431 -76,747 -280,458 -288,397 -237,-493 49,-853 37,-810 313,-254z"/>
  <path class="fil0" d="M7427 5970c-1,444 -83,415 -380,601 -432,271 -413,215 7,-518 402,-704 374,-672 373,-83z"/>
  <path class="fil0" d="M7544 5607c0,-502 42,-510 245,-737 346,-387 260,-56 83,493 -227,707 -328,732 -328,244z"/>
  <path class="fil0" d="M7645 2913c17,193 30,211 153,389 238,346 181,151 49,-251 -168,-511 -240,-595 -202,-138z"/>
  <path class="fil1" d="M10156 2739l-248 0 0 -517 -484 0 0 517 -248 0 0 -1204 248 0 0 487 484 0 0 -487 248 0 0 1204zm719 0c-11,-22 -19,-48 -24,-80 -58,64 -133,97 -225,97 -88,0 -161,-26 -218,-77 -58,-50 -87,-114 -87,-192 0,-95 36,-167 106,-218 70,-51 172,-77 304,-77l110 0 0 -51c0,-41 -10,-74 -31,-99 -22,-24 -55,-37 -101,-37 -40,0 -72,10 -94,29 -23,19 -35,45 -35,78l-239 0c0,-51 16,-99 48,-143 32,-44 77,-79 136,-104 58,-25 124,-37 196,-37 111,0 198,27 263,83 65,55 97,133 97,233l0 388c1,85 13,149 36,193l0 14 -242 0zm-197 -166c35,0 67,-8 97,-24 30,-15 52,-37 66,-63l0 -154 -89 0c-119,0 -183,42 -191,124l-1 14c0,30 11,54 32,74 21,19 49,29 86,29zm587 -728l239 0 0 701 299 0 0 -701 240 0 0 702 134 0 -17 458 -222 0 0 -266 -673 0 0 -894zm1571 0l239 0 0 894 -239 0 0 -552 -300 552 -239 0 0 -894 239 0 0 551 300 -551zm384 438c0,-88 17,-167 51,-237 34,-69 83,-123 148,-161 64,-38 138,-57 223,-57 121,0 219,37 296,111 76,73 119,174 128,300l1 62c0,137 -38,247 -115,330 -76,83 -179,125 -308,125 -129,0 -232,-42 -309,-125 -77,-82 -115,-195 -115,-337l0 -11zm239 17c0,85 16,150 48,195 32,45 77,68 137,68 58,0 103,-23 135,-67 33,-44 49,-115 49,-213 0,-83 -16,-148 -49,-194 -32,-45 -78,-68 -137,-68 -58,0 -103,23 -135,68 -32,45 -48,116 -48,211zm1531 439l-239 0 0 -344 -297 0 0 344 -239 0 0 -894 239 0 0 357 297 0 0 -357 239 0 0 894zm704 0c-11,-22 -19,-48 -24,-80 -58,64 -133,97 -226,97 -87,0 -160,-26 -218,-77 -57,-50 -86,-114 -86,-192 0,-95 35,-167 105,-218 71,-51 172,-77 305,-77l110 0 0 -51c0,-41 -11,-74 -32,-99 -21,-24 -55,-37 -100,-37 -40,0 -72,10 -95,29 -23,19 -34,45 -34,78l-239 0c0,-51 16,-99 48,-143 32,-44 77,-79 135,-104 59,-25 124,-37 197,-37 110,0 198,27 263,83 65,55 97,133 97,233l0 388c1,85 12,149 36,193l0 14 -242 0zm-198 -166c36,0 68,-8 98,-24 30,-15 52,-37 66,-63l0 -154 -89 0c-120,0 -184,42 -191,124l-1 14c0,30 10,54 31,74 21,19 50,29 86,29zm1365 -728l0 894 -239 0 0 -701 -211 0 -14 276c-10,147 -39,254 -87,321 -49,68 -121,102 -217,104l-81 0 -2 -193 29 -3c43,-3 75,-29 95,-76 19,-47 32,-128 37,-243l16 -379 674 0zm440 262l172 0c77,0 144,13 203,39 58,26 103,63 134,111 31,48 47,104 47,168 0,94 -35,170 -105,227 -70,58 -164,87 -285,87l-405 0 0 -894 239 0 0 262zm0 193l0 246 170 0c47,0 84,-11 109,-33 25,-22 38,-51 38,-88 0,-39 -13,-69 -37,-91 -25,-23 -62,-34 -110,-34l-170 0zm1466 439l-240 0 0 -344 -297 0 0 344 -239 0 0 -894 239 0 0 357 297 0 0 -357 240 0 0 894zm703 0c-11,-22 -19,-48 -24,-80 -58,64 -133,97 -226,97 -87,0 -160,-26 -218,-77 -57,-50 -86,-114 -86,-192 0,-95 35,-167 106,-218 70,-51 172,-77 304,-77l110 0 0 -51c0,-41 -11,-74 -32,-99 -21,-24 -54,-37 -100,-37 -40,0 -72,10 -95,29 -23,19 -34,45 -34,78l-239 0c0,-51 16,-99 48,-143 32,-44 77,-79 136,-104 58,-25 123,-37 196,-37 111,0 198,27 263,83 65,55 97,133 97,233l0 388c1,85 13,149 36,193l0 14 -242 0zm-197 -166c35,0 67,-8 97,-24 30,-15 52,-37 66,-63l0 -154 -89 0c-120,0 -183,42 -191,124l-1 14c0,30 11,54 31,74 21,19 50,29 87,29zm1332 -728l0 894 -238 0 0 -308 -151 0 -172 308 -242 0 195 -349c-54,-25 -95,-59 -124,-101 -29,-42 -43,-91 -43,-145 0,-87 33,-157 100,-213 67,-55 157,-84 269,-86l406 0zm-401 418l163 0 0 -225 -155 0c-43,0 -77,11 -104,33 -26,22 -39,49 -39,81 0,32 12,58 38,79 25,21 57,31 97,32zm-11081 2053c0,-89 17,-168 51,-238 34,-69 84,-123 148,-161 64,-38 139,-57 223,-57 121,0 220,37 296,111 76,74 119,174 128,301l1 61c0,137 -38,247 -114,330 -77,83 -180,125 -309,125 -129,0 -232,-42 -309,-124 -77,-83 -115,-195 -115,-338l0 -10zm239 17c0,85 16,150 48,194 32,45 78,68 137,68 58,0 103,-22 136,-67 32,-44 48,-115 48,-213 0,-83 -16,-148 -48,-193 -33,-46 -79,-69 -138,-69 -58,0 -103,23 -135,68 -32,46 -48,116 -48,212zm1200 -407c115,0 206,38 274,114 69,76 103,179 103,310l0 11c0,129 -38,233 -114,310 -76,78 -179,117 -307,117 -129,0 -232,-42 -308,-126 -76,-84 -114,-198 -114,-343l0 -40c1,-201 35,-358 102,-472 67,-114 167,-186 302,-215 70,-16 116,-31 136,-46 21,-16 31,-37 31,-64l193 0c0,87 -23,152 -69,196 -47,43 -130,77 -249,101 -71,14 -126,42 -167,83 -41,41 -68,100 -83,175 76,-74 166,-111 270,-111zm-46 193c-56,0 -101,19 -133,57 -32,38 -48,100 -48,185 0,76 15,134 47,174 31,40 76,60 136,60 58,0 103,-20 134,-59 31,-39 47,-96 48,-173l0 -19c0,-73 -16,-129 -49,-168 -32,-38 -77,-57 -135,-57zm1358 213c0,138 -32,248 -94,331 -63,83 -147,125 -254,125 -90,0 -163,-31 -219,-94l0 421 -239 0 0 -1238 222 0 8 87c58,-69 133,-104 227,-104 110,0 196,41 257,122 61,82 92,194 92,338l0 12zm-240 -18c0,-83 -14,-148 -44,-193 -29,-45 -72,-68 -128,-68 -75,0 -127,29 -155,86l0 367c29,59 81,89 156,89 114,0 171,-94 171,-281zm906 457c-11,-21 -19,-48 -24,-80 -58,65 -133,97 -226,97 -87,0 -160,-25 -218,-76 -57,-51 -86,-115 -86,-192 0,-95 35,-168 105,-219 71,-51 172,-76 305,-77l110 0 0 -51c0,-41 -11,-74 -32,-98 -21,-25 -55,-37 -100,-37 -40,0 -72,9 -95,28 -23,19 -34,45 -34,79l-239 0c0,-52 16,-100 48,-144 32,-44 77,-78 135,-104 59,-25 124,-37 197,-37 110,0 198,28 262,83 65,56 98,133 98,234l0 387c0,85 12,149 35,193l0 14 -241 0zm-198 -166c36,0 68,-8 98,-23 30,-16 52,-37 66,-64l0 -153 -89 0c-120,0 -184,41 -191,123l-1 15c0,29 10,54 31,73 21,19 50,29 86,29zm1057 -466c0,-32 -10,-56 -31,-74 -20,-17 -50,-26 -88,-26 -39,0 -71,9 -95,25 -25,17 -37,40 -37,70l-239 0c0,-81 34,-147 101,-198 67,-51 153,-76 258,-76 115,0 205,23 271,68 66,45 99,109 99,192 0,39 -12,76 -36,109 -24,33 -57,60 -101,80 102,36 153,105 153,208 0,83 -35,148 -105,198 -71,48 -164,73 -281,73 -109,0 -198,-25 -268,-76 -70,-51 -105,-119 -105,-205l239 0c0,30 13,55 40,73 27,19 63,28 106,28 43,0 76,-9 99,-30 24,-20 36,-46 36,-78 0,-39 -11,-68 -34,-85 -22,-17 -56,-25 -102,-25l-130 0 0 -156 139 0c74,-2 111,-34 111,-95zm363 177c0,-89 17,-168 51,-238 34,-69 83,-123 148,-161 64,-38 138,-57 223,-57 121,0 219,37 296,111 76,74 119,174 127,301l2 61c0,137 -38,247 -115,330 -77,83 -179,125 -308,125 -129,0 -232,-42 -309,-124 -77,-83 -115,-195 -115,-338l0 -10zm239 17c0,85 15,150 48,194 31,45 77,68 137,68 58,0 103,-22 135,-67 33,-44 49,-115 49,-213 0,-83 -16,-148 -49,-193 -32,-46 -78,-69 -137,-69 -58,0 -104,23 -135,68 -33,46 -48,116 -48,212zm772 438l0 -894 373 0c122,0 215,21 280,65 66,42 98,104 98,185 0,41 -13,78 -41,111 -27,33 -67,58 -119,76 64,12 114,36 150,71 37,36 55,79 55,131 0,83 -31,146 -93,190 -63,43 -154,65 -273,65l-430 0zm239 -369l0 176 192 0c84,0 127,-29 127,-86 0,-59 -41,-89 -121,-90l-198 0zm0 -163l147 0c84,-1 126,-28 126,-80 0,-32 -11,-55 -34,-69 -23,-13 -58,-20 -105,-20l-134 0 0 169zm1222 532c-11,-21 -19,-48 -24,-80 -58,65 -134,97 -226,97 -88,0 -161,-25 -218,-76 -58,-51 -86,-115 -86,-192 0,-95 35,-168 105,-219 70,-51 172,-76 305,-77l110 0 0 -51c0,-41 -11,-74 -32,-98 -21,-25 -55,-37 -101,-37 -40,0 -71,9 -94,28 -23,19 -35,45 -35,79l-238 0c0,-52 15,-100 47,-144 32,-44 78,-78 136,-104 58,-25 124,-37 197,-37 110,0 198,28 262,83 65,56 98,133 98,234l0 387c0,85 12,149 35,193l0 14 -241 0zm-198 -166c35,0 68,-8 98,-23 29,-16 51,-37 66,-64l0 -153 -89 0c-120,0 -184,41 -192,123l0 15c0,29 10,54 31,73 21,19 50,29 86,29zm1316 -535l-286 0 0 701 -240 0 0 -701 -282 0 0 -193 808 0 0 193zm479 718c-131,0 -238,-40 -320,-121 -83,-80 -124,-188 -124,-322l0 -23c0,-90 18,-170 52,-241 35,-71 84,-125 148,-163 64,-39 136,-58 218,-58 122,0 219,39 289,116 70,77 105,187 105,328l0 98 -569 0c7,58 31,105 69,140 39,35 88,53 148,53 92,0 164,-33 216,-100l117 132c-36,50 -84,90 -145,118 -61,29 -129,43 -204,43zm-27 -735c-47,0 -86,16 -115,48 -30,32 -49,78 -57,138l332 0 0 -19c-1,-53 -15,-94 -42,-123 -28,-29 -67,-44 -118,-44zm1308 -176l0 894 -239 0 0 -701 -211 0 -14 276c-10,147 -39,255 -87,322 -49,67 -121,101 -217,103l-81 0 -2 -193 29 -3c43,-3 75,-28 95,-76 19,-47 32,-128 37,-242l16 -380 674 0zm440 262l172 0c77,0 144,13 203,39 58,26 103,63 134,111 31,48 47,104 47,168 0,94 -35,170 -105,228 -70,57 -164,86 -285,86l-405 0 0 -894 239 0 0 262zm0 193l0 246 170 0c47,0 84,-11 109,-33 25,-21 38,-51 38,-88 0,-38 -13,-68 -37,-91 -25,-22 -62,-34 -110,-34l-170 0zm1465 439l-239 0 0 -344 -297 0 0 344 -239 0 0 -894 239 0 0 357 297 0 0 -357 239 0 0 894zm704 0c-11,-21 -19,-48 -24,-80 -58,65 -133,97 -226,97 -87,0 -160,-25 -218,-76 -57,-51 -86,-115 -86,-192 0,-95 35,-168 106,-219 70,-51 171,-76 304,-77l110 0 0 -51c0,-41 -11,-74 -32,-98 -21,-25 -54,-37 -100,-37 -40,0 -72,9 -95,28 -23,19 -34,45 -34,79l-239 0c0,-52 16,-100 48,-144 32,-44 77,-78 136,-104 58,-25 123,-37 196,-37 111,0 198,28 263,83 65,56 97,133 97,234l0 387c1,85 13,149 36,193l0 14 -242 0zm-197 -166c35,0 67,-8 97,-23 30,-16 52,-37 66,-64l0 -153 -89 0c-120,0 -183,41 -191,123l-1 15c0,29 11,54 31,73 21,19 50,29 87,29zm1332 -728l0 894 -238 0 0 -308 -151 0 -172 308 -242 0 195 -349c-54,-25 -95,-58 -124,-101 -29,-42 -43,-90 -43,-145 0,-86 33,-157 100,-213 67,-55 157,-84 269,-86l406 0zm-401 418l163 0 0 -225 -155 0c-43,0 -77,11 -104,33 -26,23 -39,49 -39,81 0,32 12,58 38,79 25,21 57,32 97,32zm-12851 1663c115,0 206,38 275,114 68,76 102,180 102,310l0 12c0,129 -38,232 -114,310 -76,77 -178,116 -307,116 -129,0 -231,-42 -307,-126 -77,-84 -115,-198 -115,-343l0 -39c1,-202 35,-359 102,-473 67,-114 168,-186 302,-215 71,-16 116,-31 137,-46 20,-15 30,-36 30,-63l194 0c0,86 -23,151 -70,195 -47,43 -129,77 -249,101 -70,14 -126,42 -167,84 -40,41 -68,99 -82,174 76,-74 166,-111 269,-111zm-45 193c-57,0 -101,19 -134,57 -32,38 -48,100 -48,185 0,76 16,134 47,174 31,40 77,60 136,60 58,0 103,-19 134,-59 32,-39 48,-96 48,-172l0 -20c0,-73 -16,-129 -48,-167 -32,-38 -77,-58 -135,-58zm1084 652c-11,-21 -19,-48 -24,-80 -58,65 -133,97 -226,97 -87,0 -160,-25 -218,-76 -57,-51 -86,-115 -86,-192 0,-95 35,-168 106,-219 70,-50 171,-76 304,-77l110 0 0 -50c0,-42 -11,-74 -32,-99 -21,-25 -54,-37 -100,-37 -40,0 -72,10 -95,29 -23,19 -34,45 -34,78l-239 0c0,-52 16,-100 48,-144 32,-44 77,-78 136,-103 58,-25 123,-38 196,-38 111,0 198,28 263,83 65,56 97,133 97,234l0 388c1,84 12,149 36,192l0 14 -242 0zm-198 -166c36,0 68,-8 98,-23 30,-16 52,-37 66,-63l0 -154 -89 0c-120,0 -183,41 -191,124l-1 14c0,29 11,54 31,74 21,19 50,28 86,28zm1057 -466c0,-32 -10,-56 -31,-73 -20,-18 -50,-26 -88,-26 -39,0 -71,8 -95,24 -25,17 -37,40 -37,70l-239 0c0,-81 34,-147 101,-198 67,-50 153,-76 258,-76 115,0 206,23 272,68 65,45 98,109 98,192 0,40 -12,76 -36,109 -24,34 -57,60 -101,80 102,36 153,106 153,209 0,82 -35,148 -105,197 -71,49 -164,73 -281,73 -108,0 -198,-25 -268,-76 -70,-51 -105,-119 -105,-205l239 0c0,30 14,55 40,73 28,19 63,29 106,29 43,0 76,-10 100,-30 23,-20 35,-47 35,-79 0,-39 -11,-67 -34,-84 -22,-17 -56,-26 -102,-26l-129 0 0 -156 138 0c74,-2 111,-34 111,-95zm919 632c-11,-21 -19,-48 -24,-80 -58,65 -133,97 -226,97 -88,0 -160,-25 -218,-76 -57,-51 -86,-115 -86,-192 0,-95 35,-168 105,-219 71,-50 172,-76 305,-77l110 0 0 -50c0,-42 -11,-74 -32,-99 -21,-25 -55,-37 -100,-37 -41,0 -72,10 -95,29 -23,19 -34,45 -34,78l-239 0c0,-52 16,-100 47,-144 33,-44 78,-78 136,-103 59,-25 124,-38 197,-38 110,0 198,28 262,83 65,56 98,133 98,234l0 388c0,84 12,149 35,192l0 14 -241 0zm-198 -166c35,0 68,-8 98,-23 29,-16 51,-37 66,-63l0 -154 -89 0c-120,0 -184,41 -191,124l-1 14c0,29 10,54 31,74 21,19 50,28 86,28zm1021 -27c54,-57 91,-114 110,-170 19,-56 30,-136 32,-238l7 -293 658 0 0 701 129 0 0 462 -239 0 0 -269 -530 0 0 269 -244 0 0 -462 77 0zm282 0l287 0 0 -503 -186 0 -2 108c-5,163 -38,295 -99,395zm1293 193c-11,-21 -19,-48 -24,-80 -57,65 -133,97 -225,97 -88,0 -161,-25 -218,-76 -58,-51 -87,-115 -87,-192 0,-95 36,-168 106,-219 70,-50 172,-76 304,-77l110 0 0 -50c0,-42 -10,-74 -31,-99 -22,-25 -55,-37 -101,-37 -40,0 -72,10 -94,29 -23,19 -35,45 -35,78l-239 0c0,-52 16,-100 48,-144 32,-44 77,-78 136,-103 58,-25 124,-38 197,-38 110,0 197,28 262,83 65,56 97,133 97,234l0 388c1,84 13,149 36,192l0 14 -242 0zm-197 -166c35,0 68,-8 97,-23 30,-16 52,-37 66,-63l0 -154 -89 0c-119,0 -183,41 -191,124l-1 14c0,29 11,54 32,74 21,19 49,28 86,28zm1362 166l-239 0 0 -343 -297 0 0 343 -239 0 0 -894 239 0 0 357 297 0 0 -357 239 0 0 894zm961 0l-240 0 0 -343 -296 0 0 343 -239 0 0 -894 239 0 0 357 296 0 0 -357 240 0 0 894zm441 -631l171 0c77,0 145,13 204,38 58,26 103,63 134,112 31,48 47,104 47,167 0,95 -35,170 -105,228 -70,57 -165,86 -285,86l-406 0 0 -894 240 0 0 263zm936 631l-239 0 0 -894 239 0 0 894zm-936 -438l0 245 169 0c48,0 84,-11 110,-32 25,-22 38,-52 38,-89 0,-38 -13,-68 -37,-90 -25,-23 -62,-34 -111,-34l-169 0zm1486 -189l151 -267 255 0 -254 438 265 456 -256 0 -160 -281 -158 281 -258 0 266 -456 -254 -438 256 0 147 267z"/>
 </g>
</svg>
